<svg width="285" height="82" viewBox="0 0 285 82" fill="none" xmlns="http://www.w3.org/2000/svg">
<rect y="12" width="265" height="50" rx="25" fill="#EDF1F7"/>
<path d="M34.8409 43.1591C37.0568 43.1591 38.6818 41.5227 38.6818 39.2955C38.6818 37.0398 37.1136 35.3864 34.9773 35.3864C34.1932 35.3864 33.4318 35.6648 32.9545 36.0455H32.8864L33.2955 32.6136H38.1591V31.3636H32.1136L31.4091 37.0909L32.7273 37.25C33.2102 36.9034 34.0341 36.6534 34.75 36.6591C36.233 36.6705 37.3182 37.7955 37.3182 39.3182C37.3182 40.8125 36.2727 41.9091 34.8409 41.9091C33.6477 41.9091 32.6989 41.142 32.5909 40.0909H31.2273C31.3125 41.8636 32.8409 43.1591 34.8409 43.1591ZM40.9389 43H48.2798V41.75H42.8707V41.6591L45.4844 38.8636C47.4844 36.7216 48.0753 35.7216 48.0753 34.4318C48.0753 32.6364 46.6207 31.2045 44.5753 31.2045C42.5355 31.2045 40.9844 32.5909 40.9844 34.6364H42.3253C42.3253 33.3125 43.1832 32.4318 44.5298 32.4318C45.7912 32.4318 46.7571 33.2045 46.7571 34.4318C46.7571 35.5057 46.1264 36.3011 44.7798 37.7727L40.9389 41.9773V43ZM54.2628 43.1591C56.4787 43.1591 58.1037 41.5227 58.1037 39.2955C58.1037 37.0398 56.5355 35.3864 54.3991 35.3864C53.6151 35.3864 52.8537 35.6648 52.3764 36.0455H52.3082L52.7173 32.6136H57.581V31.3636H51.5355L50.831 37.0909L52.1491 37.25C52.6321 36.9034 53.456 36.6534 54.1719 36.6591C55.6548 36.6705 56.7401 37.7955 56.7401 39.3182C56.7401 40.8125 55.6946 41.9091 54.2628 41.9091C53.0696 41.9091 52.1207 41.142 52.0128 40.0909H50.6491C50.7344 41.8636 52.2628 43.1591 54.2628 43.1591ZM60.9233 43.0909C61.4858 43.0909 61.946 42.6307 61.946 42.0682C61.946 41.5057 61.4858 41.0455 60.9233 41.0455C60.3608 41.0455 59.9006 41.5057 59.9006 42.0682C59.9006 42.6307 60.3608 43.0909 60.9233 43.0909ZM67.7315 43.1591C69.9474 43.1591 71.5724 41.5227 71.5724 39.2955C71.5724 37.0398 70.0043 35.3864 67.8679 35.3864C67.0838 35.3864 66.3224 35.6648 65.8452 36.0455H65.777L66.1861 32.6136H71.0497V31.3636H65.0043L64.2997 37.0909L65.6179 37.25C66.1009 36.9034 66.9247 36.6534 67.6406 36.6591C69.1236 36.6705 70.2088 37.7955 70.2088 39.3182C70.2088 40.8125 69.1634 41.9091 67.7315 41.9091C66.5384 41.9091 65.5895 41.142 65.4815 40.0909H64.1179C64.2031 41.8636 65.7315 43.1591 67.7315 43.1591ZM77.625 43.1591C80.1932 43.1591 81.6705 40.983 81.6705 37.1818C81.6705 33.4091 80.1705 31.2045 77.625 31.2045C75.0795 31.2045 73.5795 33.4091 73.5795 37.1818C73.5795 40.983 75.0568 43.1591 77.625 43.1591ZM77.625 41.9091C75.9318 41.9091 74.9432 40.2102 74.9432 37.1818C74.9432 34.1591 75.9432 32.4318 77.625 32.4318C79.3068 32.4318 80.3068 34.1591 80.3068 37.1818C80.3068 40.2102 79.3182 41.9091 77.625 41.9091Z" fill="#718EBF"/>
<g filter="url(#filter0_d_105_367)">
<rect x="140" y="12" width="125" height="50" rx="25" fill="#1814F3"/>
</g>
<path d="M240.982 26.9234C241.109 26.3333 240.531 25.8358 239.966 26.0512L215.49 35.3948C215.195 35.5073 215.001 35.7897 215 36.105C214.999 36.4203 215.193 36.7034 215.487 36.817L222.363 39.4726V47.8369C222.363 48.1897 222.605 48.4963 222.949 48.5779C223.29 48.659 223.645 48.4967 223.805 48.1796L226.649 42.5364L233.589 47.6868C234.011 48.0001 234.618 47.8008 234.771 47.2974C241.251 26.0528 240.971 26.9767 240.982 26.9234ZM234.94 29.6004L223.017 38.092L217.887 36.1106L234.94 29.6004ZM223.887 39.3428L234.28 31.9412C225.337 41.3758 225.804 40.8792 225.765 40.9317C225.707 41.0096 225.865 40.7058 223.887 44.6327V39.3428ZM233.629 45.8197L227.521 41.2862L238.566 29.6339L233.629 45.8197Z" fill="white"/>
<path d="M171.625 34.4205H173.318C173.267 32.5568 171.619 31.2045 169.256 31.2045C166.92 31.2045 165.131 32.5398 165.131 34.5455C165.131 36.1648 166.29 37.1136 168.159 37.6193L169.534 37.9943C170.778 38.3239 171.739 38.733 171.739 39.767C171.739 40.9034 170.653 41.6534 169.159 41.6534C167.807 41.6534 166.682 41.0511 166.58 39.7841H164.818C164.932 41.892 166.562 43.1932 169.17 43.1932C171.903 43.1932 173.477 41.7557 173.477 39.7841C173.477 37.6875 171.608 36.875 170.131 36.5114L168.994 36.2159C168.085 35.983 166.875 35.5568 166.881 34.4432C166.881 33.4545 167.784 32.7216 169.216 32.7216C170.551 32.7216 171.5 33.3466 171.625 34.4205ZM179.2 43.1761C181.104 43.1761 182.45 42.2386 182.837 40.8182L181.229 40.5284C180.922 41.3523 180.183 41.7727 179.217 41.7727C177.763 41.7727 176.786 40.8295 176.74 39.1477H182.945V38.5455C182.945 35.392 181.058 34.1591 179.081 34.1591C176.649 34.1591 175.047 36.0114 175.047 38.6932C175.047 41.4034 176.626 43.1761 179.2 43.1761ZM176.746 37.875C176.814 36.6364 177.712 35.5625 179.092 35.5625C180.411 35.5625 181.274 36.5398 181.28 37.875H176.746ZM186.528 37.8182C186.528 36.4261 187.381 35.6307 188.562 35.6307C189.716 35.6307 190.415 36.3864 190.415 37.6534V43H192.114V37.4489C192.114 35.2898 190.926 34.1591 189.142 34.1591C187.83 34.1591 186.972 34.767 186.568 35.6932H186.46V34.2727H184.83V43H186.528V37.8182ZM197.659 43.1705C199.25 43.1705 199.875 42.1989 200.182 41.642H200.324V43H201.983V31.3636H200.284V35.6875H200.182C199.875 35.1477 199.295 34.1591 197.67 34.1591C195.562 34.1591 194.011 35.8239 194.011 38.6534C194.011 41.4773 195.54 43.1705 197.659 43.1705ZM198.034 41.7216C196.517 41.7216 195.727 40.3864 195.727 38.6364C195.727 36.9034 196.5 35.6023 198.034 35.6023C199.517 35.6023 200.312 36.8125 200.312 38.6364C200.312 40.4716 199.5 41.7216 198.034 41.7216Z" fill="white"/>
<defs>
<filter id="filter0_d_105_367" x="128" y="0" width="157" height="82" filterUnits="userSpaceOnUse" color-interpolation-filters="sRGB">
<feFlood flood-opacity="0" result="BackgroundImageFix"/>
<feColorMatrix in="SourceAlpha" type="matrix" values="0 0 0 0 0 0 0 0 0 0 0 0 0 0 0 0 0 0 127 0" result="hardAlpha"/>
<feMorphology radius="2" operator="erode" in="SourceAlpha" result="effect1_dropShadow_105_367"/>
<feOffset dx="4" dy="4"/>
<feGaussianBlur stdDeviation="9"/>
<feColorMatrix type="matrix" values="0 0 0 0 0.904427 0 0 0 0 0.893194 0 0 0 0 0.908333 0 0 0 0.8 0"/>
<feBlend mode="normal" in2="BackgroundImageFix" result="effect1_dropShadow_105_367"/>
<feBlend mode="normal" in="SourceGraphic" in2="effect1_dropShadow_105_367" result="shape"/>
</filter>
</defs>
</svg>
