<svg width="80" height="30" viewBox="0 0 80 30" fill="none" xmlns="http://www.w3.org/2000/svg">
<path d="M15.9727 20C18.6317 20 20.1317 18.3466 20.1317 15.6193C20.1317 12.9091 18.6317 11.2727 16.092 11.2727H13.2795V20H15.9727ZM14.3363 19.0625V12.2102H16.0238C18.0692 12.2102 19.109 13.5057 19.109 15.6193C19.109 17.75 18.0692 19.0625 15.9045 19.0625H14.3363ZM24.4272 20.1364C26.1999 20.1364 27.3931 18.7898 27.3931 16.7614C27.3931 14.7159 26.1999 13.3693 24.4272 13.3693C22.6545 13.3693 21.4613 14.7159 21.4613 16.7614C21.4613 18.7898 22.6545 20.1364 24.4272 20.1364ZM24.4272 19.233C23.0806 19.233 22.467 18.0739 22.467 16.7614C22.467 15.4489 23.0806 14.2727 24.4272 14.2727C25.7738 14.2727 26.3874 15.4489 26.3874 16.7614C26.3874 18.0739 25.7738 19.233 24.4272 19.233ZM30.1886 20H31.1772L32.609 14.9716H32.7113L34.1431 20H35.1317L37.1261 13.4545H36.0692L34.6545 18.4489H34.5863L33.2056 13.4545H32.1317L30.734 18.4659H30.6658L29.2511 13.4545H28.1942L30.1886 20ZM39.4613 16.0625C39.4613 14.9205 40.1687 14.2727 41.1317 14.2727C42.065 14.2727 42.6317 14.8821 42.6317 15.9091V20H43.6374V15.8409C43.6374 14.1705 42.7468 13.3693 41.4215 13.3693C40.4329 13.3693 39.8192 13.8125 39.5124 14.4773H39.4272V13.4545H38.4556V20H39.4613V16.0625ZM46.4808 11.2727H45.4751V20H46.4808V11.2727ZM50.9819 20.1364C52.7546 20.1364 53.9478 18.7898 53.9478 16.7614C53.9478 14.7159 52.7546 13.3693 50.9819 13.3693C49.2092 13.3693 48.016 14.7159 48.016 16.7614C48.016 18.7898 49.2092 20.1364 50.9819 20.1364ZM50.9819 19.233C49.6353 19.233 49.0217 18.0739 49.0217 16.7614C49.0217 15.4489 49.6353 14.2727 50.9819 14.2727C52.3285 14.2727 52.9421 15.4489 52.9421 16.7614C52.9421 18.0739 52.3285 19.233 50.9819 19.233ZM57.4091 20.1534C58.5511 20.1534 59.1477 19.5398 59.3523 19.1136H59.4034V20H60.4091V15.6875C60.4091 13.608 58.8239 13.3693 57.9886 13.3693C57 13.3693 55.875 13.7102 55.3636 14.9034L56.3182 15.2443C56.5398 14.767 57.0639 14.2557 58.0227 14.2557C58.9474 14.2557 59.4034 14.7457 59.4034 15.5852V15.6193C59.4034 16.1051 58.9091 16.0625 57.7159 16.2159C56.5014 16.3736 55.1761 16.642 55.1761 18.142C55.1761 19.4205 56.1648 20.1534 57.4091 20.1534ZM57.5625 19.25C56.7614 19.25 56.1818 18.892 56.1818 18.1932C56.1818 17.4261 56.8807 17.1875 57.6648 17.0852C58.0909 17.0341 59.233 16.9148 59.4034 16.7102V17.6307C59.4034 18.4489 58.7557 19.25 57.5625 19.25ZM64.7163 20.1364C65.9776 20.1364 66.4038 19.3523 66.6254 18.9943H66.7447V20H67.7163V11.2727H66.7106V14.4943H66.6254C66.4038 14.1534 66.0117 13.3693 64.7333 13.3693C63.0799 13.3693 61.9379 14.6818 61.9379 16.7443C61.9379 18.8239 63.0799 20.1364 64.7163 20.1364ZM64.8526 19.233C63.5913 19.233 62.9435 18.125 62.9435 16.7273C62.9435 15.3466 63.5742 14.2727 64.8526 14.2727C66.0799 14.2727 66.7276 15.2614 66.7276 16.7273C66.7276 18.2102 66.0629 19.233 64.8526 19.233Z" fill="#123288"/>
<rect x="0.5" y="0.5" width="79" height="29" rx="14.5" stroke="#123288"/>
</svg>
